<svg width="350" height="85" viewBox="0 0 350 85" fill="none" xmlns="http://www.w3.org/2000/svg">
<path d="M82.2829 79.932L32.5304 31.6009C22.1652 21.5319 30.6327 4.0694 44.9575 5.97238L129.275 17.1735C130.586 17.3477 131.914 17.3477 133.225 17.1735L255.29 0.957819C259.843 0.352952 264.422 1.86753 267.717 5.068L317.47 53.3991C327.835 63.4681 319.367 80.9306 305.043 79.0276L220.725 67.8265C219.414 67.6523 218.086 67.6523 216.775 67.8265L94.7101 84.0422C90.1569 84.647 85.5775 83.1325 82.2829 79.932Z" fill="url(#paint0_angular_23_16)" fill-opacity="0.8"/>
<path d="M133.547 30.5C135.474 30.9557 136.913 31.6914 137.863 32.707C138.827 33.7227 139.309 35.1029 139.309 36.8477C139.309 38.0195 139.178 39.0091 138.918 39.8164C138.658 40.6237 138.326 41.2878 137.922 41.8086C137.531 42.3294 137.102 42.7331 136.633 43.0195C136.177 43.293 135.747 43.4948 135.344 43.625C134.953 43.7552 134.621 43.8333 134.348 43.8594C134.087 43.8724 133.957 43.8789 133.957 43.8789C134.426 43.9049 134.934 43.9635 135.48 44.0547C136.027 44.1328 136.568 44.263 137.102 44.4453C137.635 44.6146 138.15 44.8424 138.645 45.1289C139.139 45.4023 139.569 45.7539 139.934 46.1836C140.311 46.6133 140.611 47.1211 140.832 47.707C141.066 48.293 141.184 48.9766 141.184 49.7578C141.184 50.9297 141.034 52.0234 140.734 53.0391C140.435 54.0417 139.901 54.9141 139.133 55.6562C138.378 56.3854 137.355 56.9583 136.066 57.375C134.777 57.7917 133.137 58 131.145 58H109.836V50.207L112.18 49.7578V37.9805L109.836 37.5312V30.5H133.547ZM129.426 39.0547C129.426 38.3906 129.315 37.8828 129.094 37.5312C128.885 37.1667 128.599 36.8997 128.234 36.7305C127.883 36.5612 127.479 36.4635 127.023 36.4375C126.581 36.4115 126.125 36.3984 125.656 36.3984H123.938V41.9453H125.656C126.125 41.9453 126.581 41.9323 127.023 41.9062C127.479 41.8672 127.883 41.763 128.234 41.5938C128.599 41.4115 128.885 41.125 129.094 40.7344C129.315 40.3438 129.426 39.7839 129.426 39.0547ZM129.426 48.4102C129.426 47.7461 129.315 47.2383 129.094 46.8867C128.885 46.5352 128.599 46.2747 128.234 46.1055C127.883 45.9362 127.479 45.8385 127.023 45.8125C126.581 45.7865 126.125 45.7734 125.656 45.7734H123.938V51.3203H125.656C126.125 51.3203 126.581 51.3073 127.023 51.2812C127.479 51.2422 127.883 51.1315 128.234 50.9492C128.599 50.7669 128.885 50.4805 129.094 50.0898C129.315 49.6992 129.426 49.1393 129.426 48.4102ZM189.781 38.6445C189.768 39.0352 189.762 39.4193 189.762 39.7969C189.762 40.1615 189.762 40.513 189.762 40.8516V43.8789C189.762 46.4831 189.404 48.7161 188.688 50.5781C187.971 52.4271 187.001 53.944 185.777 55.1289C184.553 56.3138 183.115 57.1471 181.461 57.6289C179.82 58.1107 178.076 58.3516 176.227 58.3516C174.091 58.3516 172.092 58.1107 170.23 57.6289C168.382 57.1471 166.767 56.3138 165.387 55.1289C164.02 53.931 162.939 52.4076 162.145 50.5586C161.363 48.7096 160.973 46.4831 160.973 43.8789V38.6445L158.629 38.1953V30.5H173.883V38.1953L171.539 38.6445V40.9688C171.539 41.2812 171.539 41.6003 171.539 41.9258C171.539 42.2383 171.539 42.5312 171.539 42.8047C171.552 43.0781 171.559 43.319 171.559 43.5273C171.559 43.7227 171.559 43.8529 171.559 43.918C171.559 44.2174 171.565 44.569 171.578 44.9727C171.591 45.3633 171.643 45.7734 171.734 46.2031C171.826 46.6198 171.962 47.0365 172.145 47.4531C172.34 47.8568 172.607 48.2214 172.945 48.5469C173.297 48.8724 173.733 49.1393 174.254 49.3477C174.788 49.543 175.445 49.6406 176.227 49.6406C177.008 49.6406 177.665 49.543 178.199 49.3477C178.746 49.1393 179.189 48.8724 179.527 48.5469C179.879 48.2083 180.152 47.8307 180.348 47.4141C180.543 46.9974 180.68 46.5807 180.758 46.1641C180.849 45.7344 180.901 45.3242 180.914 44.9336C180.94 44.5299 180.953 44.1784 180.953 43.8789C180.953 43.7878 180.953 43.6445 180.953 43.4492C180.953 43.2409 180.947 43.0065 180.934 42.7461C180.934 42.4727 180.934 42.1862 180.934 41.8867C180.934 41.5742 180.934 41.2682 180.934 40.9688V38.6445L178.59 38.1953V30.5H192.145V38.1953L189.781 38.6445ZM218.301 58V50.2461L220.645 49.6602L212.578 38.625L209.609 38.1953V30.5H225.293V38.1953L223.457 38.625L227.188 44.2695L230.898 38.625L229.062 38.1953V30.5H244.727V38.1953L241.777 38.625L233.711 49.6602L236.074 50.2461V58H218.301Z" fill="#FDE8FF"/>
<defs>
<radialGradient id="paint0_angular_23_16" cx="0" cy="0" r="1" gradientUnits="userSpaceOnUse" gradientTransform="translate(175 42.5) rotate(-90) scale(42.5 247.532)">
<stop offset="0.5" stop-color="#305DB3"/>
<stop offset="1" stop-color="#843486"/>
</radialGradient>
</defs>
</svg>
