<svg width="700" height="85" viewBox="0 0 700 85" fill="none" xmlns="http://www.w3.org/2000/svg">
<path d="M528.578 83.262L630.929 33.5489C645.745 26.3526 639.816 3.99756 623.381 5.08921L437.5 17.4359L178.969 0.263655C176.368 0.0908715 173.767 0.599038 171.422 1.73805L69.0712 51.4511C54.2552 58.6474 60.1839 81.0024 76.6188 79.9108L262.5 67.5641L521.031 84.7363C523.632 84.9091 526.233 84.401 528.578 83.262Z" fill="url(#paint0_angular_23_17)" fill-opacity="0.8"/>
<path d="M135.992 50.5C136.617 50.5 137.203 50.4284 137.75 50.2852C138.297 50.1289 138.805 49.9336 139.273 49.6992C139.742 49.4648 140.165 49.1979 140.543 48.8984C140.934 48.599 141.272 48.2995 141.559 48H144.82V58H120.992V49.5234L123.492 49.0352V36.9648L120.992 36.4766V28H138.492V36.4766L135.992 36.9648V50.5ZM177.461 42.5898L182.871 41.4375V47.0039L177.461 45.832V50.1484C178.242 50.1484 178.997 50.0964 179.727 49.9922C180.456 49.875 181.133 49.7188 181.758 49.5234C182.383 49.3281 182.956 49.1003 183.477 48.8398C183.997 48.5794 184.447 48.2995 184.824 48H187.5V58H163.359V50.207L165.703 49.7578V38.6836L163.359 38.2344V30.5H187.5V40.5H184.824C184.447 40.2135 183.997 39.9401 183.477 39.6797C182.956 39.4193 182.383 39.1914 181.758 38.9961C181.133 38.8008 180.456 38.6445 179.727 38.5273C178.997 38.4102 178.242 38.3516 177.461 38.3516V42.5898ZM225.844 58L224.867 53.3711H217.191L216.215 58H205.766V48.9375L208.031 48.4883L213.441 30.5H228.598L234.047 48.4883L236.293 48.9375V58H225.844ZM218.383 47.1992H223.676L221.02 36.3984L218.383 47.1992ZM285.75 58H274.07C273.706 57.3229 273.328 56.6068 272.938 55.8516C272.547 55.0833 272.169 54.2826 271.805 53.4492C271.44 52.6159 271.095 51.7565 270.77 50.8711C270.457 49.9857 270.19 49.0742 269.969 48.1367H269.324V58H255.223V50.207L257.566 49.7578V38.6445L255.223 38.1953V30.5H271.219C273.341 30.5 275.171 30.5911 276.707 30.7734C278.257 30.9557 279.565 31.2227 280.633 31.5742C281.714 31.9258 282.586 32.3555 283.25 32.8633C283.914 33.3581 284.428 33.9245 284.793 34.5625C285.171 35.1875 285.424 35.8776 285.555 36.6328C285.685 37.388 285.75 38.1888 285.75 39.0352C285.75 39.8945 285.665 40.6758 285.496 41.3789C285.34 42.082 285.053 42.7266 284.637 43.3125C284.22 43.8984 283.647 44.4388 282.918 44.9336C282.202 45.4154 281.284 45.8711 280.164 46.3008C280.398 46.7695 280.743 47.3294 281.199 47.9805C281.668 48.6185 282.176 49.276 282.723 49.9531C283.27 50.6172 283.81 51.2617 284.344 51.8867C284.891 52.5117 285.359 53.0456 285.75 53.4883V58ZM269.324 42.8438C270.04 42.8438 270.685 42.8112 271.258 42.7461C271.844 42.668 272.339 42.5117 272.742 42.2773C273.159 42.0299 273.478 41.6719 273.699 41.2031C273.921 40.7344 274.031 40.1029 274.031 39.3086C274.031 38.5273 273.921 37.9023 273.699 37.4336C273.478 36.9648 273.159 36.6068 272.742 36.3594C272.339 36.099 271.844 35.9297 271.258 35.8516C270.685 35.7734 270.04 35.7344 269.324 35.7344V42.8438ZM314.445 43.5664V49.7578L316.809 50.1875V58H305.051V50.207L307.395 49.7578V38.6445L305.051 38.1953V30.5H319.152L328.547 45.3242V38.6836L326.203 38.1953V30.5H337.941V38.1953L335.598 38.6445V49.7578L337.941 50.207V58H323.84L314.445 43.5664ZM400.039 44.543V58H385.957V50.207L388.301 49.7578V38.6445L385.957 38.1953V30.5H400.039L405.957 41.0078L411.816 30.5H425.898V38.1953L423.555 38.6445V49.7578L425.898 50.207V58H411.816V44.543L405.957 54.4648L400.039 44.543ZM461.137 58.3516C458.845 58.3516 456.697 58.1107 454.691 57.6289C452.699 57.1341 450.961 56.2943 449.477 55.1094C448.005 53.9115 446.84 52.388 445.98 50.5391C445.134 48.6901 444.711 46.4701 444.711 43.8789C444.711 41.3398 445.134 39.1784 445.98 37.3945C446.84 35.5977 448.012 34.1393 449.496 33.0195C450.98 31.8867 452.719 31.0599 454.711 30.5391C456.703 30.0182 458.845 29.7578 461.137 29.7578C463.415 29.7578 465.551 30.0182 467.543 30.5391C469.548 31.0599 471.293 31.8867 472.777 33.0195C474.275 34.1393 475.453 35.5977 476.312 37.3945C477.172 39.1784 477.602 41.3398 477.602 43.8789C477.602 45.5977 477.406 47.1602 477.016 48.5664C476.625 49.9596 476.072 51.2031 475.355 52.2969C474.652 53.3776 473.799 54.3151 472.797 55.1094C471.807 55.8906 470.701 56.5417 469.477 57.0625C468.253 57.5703 466.938 57.9089 465.531 58.0781C464.125 58.2604 462.66 58.3516 461.137 58.3516ZM461.137 38.0781C460.368 38.0781 459.717 38.1758 459.184 38.3711C458.663 38.5664 458.227 38.8203 457.875 39.1328C457.536 39.4453 457.27 39.8034 457.074 40.207C456.879 40.6107 456.736 41.0273 456.645 41.457C456.566 41.8737 456.514 42.2904 456.488 42.707C456.475 43.1107 456.469 43.4688 456.469 43.7812C456.469 44.0807 456.475 44.4388 456.488 44.8555C456.501 45.2591 456.547 45.6888 456.625 46.1445C456.703 46.5872 456.833 47.0299 457.016 47.4727C457.198 47.9154 457.458 48.3125 457.797 48.6641C458.148 49.0156 458.591 49.3021 459.125 49.5234C459.672 49.7318 460.342 49.8359 461.137 49.8359C461.918 49.8359 462.576 49.7318 463.109 49.5234C463.656 49.3151 464.099 49.0417 464.438 48.7031C464.789 48.3516 465.062 47.9609 465.258 47.5312C465.453 47.1016 465.59 46.6719 465.668 46.2422C465.759 45.7995 465.811 45.3698 465.824 44.9531C465.85 44.5365 465.863 44.1784 465.863 43.8789C465.863 43.5664 465.85 43.2083 465.824 42.8047C465.811 42.388 465.759 41.9648 465.668 41.5352C465.59 41.1055 465.453 40.6888 465.258 40.2852C465.062 39.8685 464.789 39.4974 464.438 39.1719C464.099 38.8464 463.656 38.5859 463.109 38.3906C462.576 38.1823 461.918 38.0781 461.137 38.0781ZM526.922 58H515.242C514.878 57.3229 514.5 56.6068 514.109 55.8516C513.719 55.0833 513.341 54.2826 512.977 53.4492C512.612 52.6159 512.267 51.7565 511.941 50.8711C511.629 49.9857 511.362 49.0742 511.141 48.1367H510.496V58H496.395V50.207L498.738 49.7578V38.6445L496.395 38.1953V30.5H512.391C514.513 30.5 516.342 30.5911 517.879 30.7734C519.428 30.9557 520.737 31.2227 521.805 31.5742C522.885 31.9258 523.758 32.3555 524.422 32.8633C525.086 33.3581 525.6 33.9245 525.965 34.5625C526.342 35.1875 526.596 35.8776 526.727 36.6328C526.857 37.388 526.922 38.1888 526.922 39.0352C526.922 39.8945 526.837 40.6758 526.668 41.3789C526.512 42.082 526.225 42.7266 525.809 43.3125C525.392 43.8984 524.819 44.4388 524.09 44.9336C523.374 45.4154 522.456 45.8711 521.336 46.3008C521.57 46.7695 521.915 47.3294 522.371 47.9805C522.84 48.6185 523.348 49.276 523.895 49.9531C524.441 50.6172 524.982 51.2617 525.516 51.8867C526.062 52.5117 526.531 53.0456 526.922 53.4883V58ZM510.496 42.8438C511.212 42.8438 511.857 42.8112 512.43 42.7461C513.016 42.668 513.51 42.5117 513.914 42.2773C514.331 42.0299 514.65 41.6719 514.871 41.2031C515.092 40.7344 515.203 40.1029 515.203 39.3086C515.203 38.5273 515.092 37.9023 514.871 37.4336C514.65 36.9648 514.331 36.6068 513.914 36.3594C513.51 36.099 513.016 35.9297 512.43 35.8516C511.857 35.7734 511.212 35.7344 510.496 35.7344V42.8438ZM560.305 42.5898L565.715 41.4375V47.0039L560.305 45.832V50.1484C561.086 50.1484 561.841 50.0964 562.57 49.9922C563.299 49.875 563.977 49.7188 564.602 49.5234C565.227 49.3281 565.799 49.1003 566.32 48.8398C566.841 48.5794 567.29 48.2995 567.668 48H570.344V58H546.203V50.207L548.547 49.7578V38.6836L546.203 38.2344V30.5H570.344V40.5H567.668C567.29 40.2135 566.841 39.9401 566.32 39.6797C565.799 39.4193 565.227 39.1914 564.602 38.9961C563.977 38.8008 563.299 38.6445 562.57 38.5273C561.841 38.4102 561.086 38.3516 560.305 38.3516V42.5898Z" fill="#FDE8FF"/>
<defs>
<radialGradient id="paint0_angular_23_17" cx="0" cy="0" r="1" gradientUnits="userSpaceOnUse" gradientTransform="translate(350 42.5) rotate(-90) scale(42.5 495.063)">
<stop offset="0.5" stop-color="#305DB3"/>
<stop offset="1" stop-color="#843486"/>
</radialGradient>
</defs>
</svg>
